<?xml version="1.0" encoding="iso-8859-1"?>
<!-- Generator: Adobe Illustrator 19.1.0, SVG Export Plug-In . SVG Version: 6.00 Build 0)  -->
<svg version="1.1" id="Capa_1" xmlns="http://www.w3.org/2000/svg" xmlns:xlink="http://www.w3.org/1999/xlink" x="0px" y="0px"
	 viewBox="0 0 490.125 490.125" style="enable-background:new 0 0 490.125 490.125;" xml:space="preserve">
<g>
	<g>
		<path d="M370.513,0h-94.8v90.5h-58.8V0h-97.3c-12.6,0-22.9,10.2-22.9,22.9v250.9c0,12.6,10.2,22.9,22.9,22.9h250.9
			c12.6,0,22.9-10.2,22.9-22.9v-251C393.413,10.2,383.213,0,370.513,0z"/>
		<path d="M294.613,411.9h-19.5v-64.4c0-2.8-2.2-5-5-5h-50c-2.8,0-5,2.2-5,5v64.4h-19.5c-6.4,0-10,7.4-6,12.4l49.5,62.9
			c3.1,3.9,9,3.9,12.1,0l49.5-62.9C304.613,419.3,301.013,411.9,294.613,411.9z"/>
	</g>
</g>
<g>
</g>
<g>
</g>
<g>
</g>
<g>
</g>
<g>
</g>
<g>
</g>
<g>
</g>
<g>
</g>
<g>
</g>
<g>
</g>
<g>
</g>
<g>
</g>
<g>
</g>
<g>
</g>
<g>
</g>
</svg>
