<?xml version="1.0" encoding="iso-8859-1"?>
<!-- Generator: Adobe Illustrator 16.0.0, SVG Export Plug-In . SVG Version: 6.00 Build 0)  -->
<!DOCTYPE svg PUBLIC "-//W3C//DTD SVG 1.1//EN" "http://www.w3.org/Graphics/SVG/1.1/DTD/svg11.dtd">
<svg version="1.1" id="Capa_1" xmlns="http://www.w3.org/2000/svg" xmlns:xlink="http://www.w3.org/1999/xlink" x="0px" y="0px"
	 width="326.7px" height="326.7px" viewBox="0 0 326.7 326.7" style="enable-background:new 0 0 326.7 326.7;" xml:space="preserve"
	>
<g>
	<g>
		<path d="M48.89,228.308h126.346h105.269c5.964,0,10.857-4.841,10.736-10.8c-0.991-50.504-11.797-90.88-17.528-108.904
			c-1.804-5.688-8.354-10.212-14.312-10.212H69.994c-5.961,0-12.506,4.529-14.31,10.217c-5.729,18.025-16.54,58.401-17.534,108.899
			C38.032,223.472,42.923,228.308,48.89,228.308z"/>
		<path d="M305.1,111.259h-24.052c3.739,12.205,8.622,30.828,12.208,54H305.1c14.908,0,21.601-12.09,21.601-27
			C326.7,123.351,320.003,111.259,305.1,111.259z"/>
		<path d="M21.6,165.259h11.836c3.586-23.167,8.472-41.795,12.208-54H21.6c-14.916,0-21.6,12.092-21.6,27
			C0,153.175,6.684,165.259,21.6,165.259z"/>
	</g>
</g>
<g>
</g>
<g>
</g>
<g>
</g>
<g>
</g>
<g>
</g>
<g>
</g>
<g>
</g>
<g>
</g>
<g>
</g>
<g>
</g>
<g>
</g>
<g>
</g>
<g>
</g>
<g>
</g>
<g>
</g>
</svg>
